<?xml version="1.0" standalone="no"?>
<!DOCTYPE svg PUBLIC "-//W3C//DTD SVG 20010904//EN"
 "http://www.w3.org/TR/2001/REC-SVG-20010904/DTD/svg10.dtd">
<svg version="1.0" xmlns="http://www.w3.org/2000/svg"
 width="512.000000pt" height="512.000000pt" viewBox="0 0 512.000000 512.000000"
 preserveAspectRatio="xMidYMid meet">
<metadata>
Created by potrace 1.11, written by Peter Selinger 2001-2013
</metadata>
<g transform="translate(0.000000,512.000000) scale(0.100000,-0.100000)"
fill="#000000" stroke="none">
<path d="M60 5044 c-62 -27 -59 10 -60 -745 0 -420 4 -697 9 -712 20 -53 50
-62 215 -62 l151 0 0 -100 0 -99 -158 -1 -157 -1 -28 -27 -27 -27 -2 -698 c-2
-545 0 -702 10 -722 23 -47 60 -56 221 -55 l146 1 0 -101 0 -100 -151 0 c-161
0 -194 -8 -218 -54 -7 -13 -10 -243 -8 -720 l2 -701 28 -27 27 -28 2491 0
c2364 0 2493 1 2520 17 16 10 34 30 39 44 13 34 13 1374 0 1408 -19 52 -48 60
-216 60 l-154 1 0 100 0 100 147 0 c161 0 197 9 220 55 18 36 18 1384 0 1420
-23 47 -60 56 -221 55 l-147 -1 3 101 3 100 158 0 157 1 28 27 27 27 2 705 3
705 -29 32 -29 33 -2487 0 c-1865 0 -2494 -3 -2515 -11z m4163 -749 c-1 -308
-2 -563 -2 -567 -1 -5 -113 -8 -251 -8 -231 0 -250 1 -251 18 -1 21 0 1092 0
1110 1 10 55 12 253 10 l251 -3 0 -560z m318 -780 c4 -8 5 -166 0 -185 -1 -4
-3943 -5 -3961 -1 -5 1 -5 173 -1 191 2 11 3956 6 3962 -5z m-320 -402 c1 -23
1 -1105 0 -1115 -1 -5 -113 -8 -251 -8 l-250 0 -1 23 c0 30 0 1066 0 1095 l1
22 250 0 c231 0 250 -1 251 -17z m324 -1418 l0 -100 -1985 0 -1985 0 0 90 c-1
50 0 95 2 100 2 7 673 10 1986 10 l1982 0 0 -100z m-324 -307 c1 -17 1 -1087
0 -1110 -1 -17 -20 -18 -251 -18 l-250 0 -1 23 c0 12 -1 268 -2 570 l-2 547
253 0 c194 0 252 -3 253 -12z"/>
</g>
</svg>
